<svg width="252" height="68" viewBox="0 0 252 68" fill="none" xmlns="http://www.w3.org/2000/svg">
<g clip-path="url(#clip0_125_22)">
<g filter="url(#filter0_d_125_22)">
<path d="M85.3359 38.8359H76.6406V33.3516H85.3359C86.6797 33.3516 87.7734 33.1328 88.6172 32.6953C89.4609 32.2422 90.0781 31.6172 90.4688 30.8203C90.8594 30.0234 91.0547 29.125 91.0547 28.125C91.0547 27.1094 90.8594 26.1641 90.4688 25.2891C90.0781 24.4141 89.4609 23.7109 88.6172 23.1797C87.7734 22.6484 86.6797 22.3828 85.3359 22.3828H79.0781V51H72.0469V16.875H85.3359C88.0078 16.875 90.2969 17.3594 92.2031 18.3281C94.125 19.2812 95.5938 20.6016 96.6094 22.2891C97.625 23.9766 98.1328 25.9062 98.1328 28.0781C98.1328 30.2812 97.625 32.1875 96.6094 33.7969C95.5938 35.4062 94.125 36.6484 92.2031 37.5234C90.2969 38.3984 88.0078 38.8359 85.3359 38.8359ZM115.969 45.2812V33.9844C115.969 33.1719 115.836 32.4766 115.57 31.8984C115.305 31.3047 114.891 30.8438 114.328 30.5156C113.781 30.1875 113.07 30.0234 112.195 30.0234C111.445 30.0234 110.797 30.1562 110.25 30.4219C109.703 30.6719 109.281 31.0391 108.984 31.5234C108.688 31.9922 108.539 32.5469 108.539 33.1875H101.789C101.789 32.1094 102.039 31.0859 102.539 30.1172C103.039 29.1484 103.766 28.2969 104.719 27.5625C105.672 26.8125 106.805 26.2266 108.117 25.8047C109.445 25.3828 110.93 25.1719 112.57 25.1719C114.539 25.1719 116.289 25.5 117.82 26.1562C119.352 26.8125 120.555 27.7969 121.43 29.1094C122.32 30.4219 122.766 32.0625 122.766 34.0312V44.8828C122.766 46.2734 122.852 47.4141 123.023 48.3047C123.195 49.1797 123.445 49.9453 123.773 50.6016V51H116.953C116.625 50.3125 116.375 49.4531 116.203 48.4219C116.047 47.375 115.969 46.3281 115.969 45.2812ZM116.859 35.5547L116.906 39.375H113.133C112.242 39.375 111.469 39.4766 110.812 39.6797C110.156 39.8828 109.617 40.1719 109.195 40.5469C108.773 40.9062 108.461 41.3281 108.258 41.8125C108.07 42.2969 107.977 42.8281 107.977 43.4062C107.977 43.9844 108.109 44.5078 108.375 44.9766C108.641 45.4297 109.023 45.7891 109.523 46.0547C110.023 46.3047 110.609 46.4297 111.281 46.4297C112.297 46.4297 113.18 46.2266 113.93 45.8203C114.68 45.4141 115.258 44.9141 115.664 44.3203C116.086 43.7266 116.305 43.1641 116.32 42.6328L118.102 45.4922C117.852 46.1328 117.508 46.7969 117.07 47.4844C116.648 48.1719 116.109 48.8203 115.453 49.4297C114.797 50.0234 114.008 50.5156 113.086 50.9062C112.164 51.2812 111.07 51.4688 109.805 51.4688C108.195 51.4688 106.734 51.1484 105.422 50.5078C104.125 49.8516 103.094 48.9531 102.328 47.8125C101.578 46.6562 101.203 45.3438 101.203 43.875C101.203 42.5469 101.453 41.3672 101.953 40.3359C102.453 39.3047 103.188 38.4375 104.156 37.7344C105.141 37.0156 106.367 36.4766 107.836 36.1172C109.305 35.7422 111.008 35.5547 112.945 35.5547H116.859ZM134.578 31.0547V51H127.828V25.6406H134.156L134.578 31.0547ZM133.594 37.4297H131.766C131.766 35.5547 132.008 33.8672 132.492 32.3672C132.977 30.8516 133.656 29.5625 134.531 28.5C135.406 27.4219 136.445 26.6016 137.648 26.0391C138.867 25.4609 140.227 25.1719 141.727 25.1719C142.914 25.1719 144 25.3438 144.984 25.6875C145.969 26.0312 146.812 26.5781 147.516 27.3281C148.234 28.0781 148.781 29.0703 149.156 30.3047C149.547 31.5391 149.742 33.0469 149.742 34.8281V51H142.945V34.8047C142.945 33.6797 142.789 32.8047 142.477 32.1797C142.164 31.5547 141.703 31.1172 141.094 30.8672C140.5 30.6016 139.766 30.4688 138.891 30.4688C137.984 30.4688 137.195 30.6484 136.523 31.0078C135.867 31.3672 135.32 31.8672 134.883 32.5078C134.461 33.1328 134.141 33.8672 133.922 34.7109C133.703 35.5547 133.594 36.4609 133.594 37.4297ZM169.852 45.4688V15H176.648V51H170.531L169.852 45.4688ZM153.82 38.625V38.1328C153.82 36.1953 154.039 34.4375 154.477 32.8594C154.914 31.2656 155.555 29.8984 156.398 28.7578C157.242 27.6172 158.281 26.7344 159.516 26.1094C160.75 25.4844 162.156 25.1719 163.734 25.1719C165.219 25.1719 166.516 25.4844 167.625 26.1094C168.75 26.7344 169.703 27.625 170.484 28.7812C171.281 29.9219 171.922 31.2734 172.406 32.8359C172.891 34.3828 173.242 36.0781 173.461 37.9219V39C173.242 40.7656 172.891 42.4062 172.406 43.9219C171.922 45.4375 171.281 46.7656 170.484 47.9062C169.703 49.0312 168.75 49.9062 167.625 50.5312C166.5 51.1562 165.188 51.4688 163.688 51.4688C162.109 51.4688 160.703 51.1484 159.469 50.5078C158.25 49.8672 157.219 48.9688 156.375 47.8125C155.547 46.6562 154.914 45.2969 154.477 43.7344C154.039 42.1719 153.82 40.4688 153.82 38.625ZM160.57 38.1328V38.625C160.57 39.6719 160.648 40.6484 160.805 41.5547C160.977 42.4609 161.25 43.2656 161.625 43.9688C162.016 44.6562 162.516 45.1953 163.125 45.5859C163.75 45.9609 164.508 46.1484 165.398 46.1484C166.555 46.1484 167.508 45.8906 168.258 45.375C169.008 44.8438 169.578 44.1172 169.969 43.1953C170.375 42.2734 170.609 41.2109 170.672 40.0078V36.9375C170.625 35.9531 170.484 35.0703 170.25 34.2891C170.031 33.4922 169.703 32.8125 169.266 32.25C168.844 31.6875 168.312 31.25 167.672 30.9375C167.047 30.625 166.305 30.4688 165.445 30.4688C164.57 30.4688 163.82 30.6719 163.195 31.0781C162.57 31.4688 162.062 32.0078 161.672 32.6953C161.297 33.3828 161.016 34.1953 160.828 35.1328C160.656 36.0547 160.57 37.0547 160.57 38.1328ZM180.844 38.5781V38.0859C180.844 36.2266 181.109 34.5156 181.641 32.9531C182.172 31.375 182.945 30.0078 183.961 28.8516C184.977 27.6953 186.227 26.7969 187.711 26.1562C189.195 25.5 190.898 25.1719 192.82 25.1719C194.742 25.1719 196.453 25.5 197.953 26.1562C199.453 26.7969 200.711 27.6953 201.727 28.8516C202.758 30.0078 203.539 31.375 204.07 32.9531C204.602 34.5156 204.867 36.2266 204.867 38.0859V38.5781C204.867 40.4219 204.602 42.1328 204.07 43.7109C203.539 45.2734 202.758 46.6406 201.727 47.8125C200.711 48.9688 199.461 49.8672 197.977 50.5078C196.492 51.1484 194.789 51.4688 192.867 51.4688C190.945 51.4688 189.234 51.1484 187.734 50.5078C186.25 49.8672 184.992 48.9688 183.961 47.8125C182.945 46.6406 182.172 45.2734 181.641 43.7109C181.109 42.1328 180.844 40.4219 180.844 38.5781ZM187.594 38.0859V38.5781C187.594 39.6406 187.688 40.6328 187.875 41.5547C188.062 42.4766 188.359 43.2891 188.766 43.9922C189.188 44.6797 189.734 45.2188 190.406 45.6094C191.078 46 191.898 46.1953 192.867 46.1953C193.805 46.1953 194.609 46 195.281 45.6094C195.953 45.2188 196.492 44.6797 196.898 43.9922C197.305 43.2891 197.602 42.4766 197.789 41.5547C197.992 40.6328 198.094 39.6406 198.094 38.5781V38.0859C198.094 37.0547 197.992 36.0859 197.789 35.1797C197.602 34.2578 197.297 33.4453 196.875 32.7422C196.469 32.0234 195.93 31.4609 195.258 31.0547C194.586 30.6484 193.773 30.4453 192.82 30.4453C191.867 30.4453 191.055 30.6484 190.383 31.0547C189.727 31.4609 189.188 32.0234 188.766 32.7422C188.359 33.4453 188.062 34.2578 187.875 35.1797C187.688 36.0859 187.594 37.0547 187.594 38.0859ZM215.766 31.1719V51H209.016V25.6406H215.367L215.766 31.1719ZM223.406 25.4766L223.289 31.7344C222.961 31.6875 222.562 31.6484 222.094 31.6172C221.641 31.5703 221.227 31.5469 220.852 31.5469C219.898 31.5469 219.07 31.6719 218.367 31.9219C217.68 32.1562 217.102 32.5078 216.633 32.9766C216.18 33.4453 215.836 34.0156 215.602 34.6875C215.383 35.3594 215.258 36.125 215.227 36.9844L213.867 36.5625C213.867 34.9219 214.031 33.4141 214.359 32.0391C214.688 30.6484 215.164 29.4375 215.789 28.4062C216.43 27.375 217.211 26.5781 218.133 26.0156C219.055 25.4531 220.109 25.1719 221.297 25.1719C221.672 25.1719 222.055 25.2031 222.445 25.2656C222.836 25.3125 223.156 25.3828 223.406 25.4766ZM239.484 45.2812V33.9844C239.484 33.1719 239.352 32.4766 239.086 31.8984C238.82 31.3047 238.406 30.8438 237.844 30.5156C237.297 30.1875 236.586 30.0234 235.711 30.0234C234.961 30.0234 234.312 30.1562 233.766 30.4219C233.219 30.6719 232.797 31.0391 232.5 31.5234C232.203 31.9922 232.055 32.5469 232.055 33.1875H225.305C225.305 32.1094 225.555 31.0859 226.055 30.1172C226.555 29.1484 227.281 28.2969 228.234 27.5625C229.188 26.8125 230.32 26.2266 231.633 25.8047C232.961 25.3828 234.445 25.1719 236.086 25.1719C238.055 25.1719 239.805 25.5 241.336 26.1562C242.867 26.8125 244.07 27.7969 244.945 29.1094C245.836 30.4219 246.281 32.0625 246.281 34.0312V44.8828C246.281 46.2734 246.367 47.4141 246.539 48.3047C246.711 49.1797 246.961 49.9453 247.289 50.6016V51H240.469C240.141 50.3125 239.891 49.4531 239.719 48.4219C239.562 47.375 239.484 46.3281 239.484 45.2812ZM240.375 35.5547L240.422 39.375H236.648C235.758 39.375 234.984 39.4766 234.328 39.6797C233.672 39.8828 233.133 40.1719 232.711 40.5469C232.289 40.9062 231.977 41.3281 231.773 41.8125C231.586 42.2969 231.492 42.8281 231.492 43.4062C231.492 43.9844 231.625 44.5078 231.891 44.9766C232.156 45.4297 232.539 45.7891 233.039 46.0547C233.539 46.3047 234.125 46.4297 234.797 46.4297C235.812 46.4297 236.695 46.2266 237.445 45.8203C238.195 45.4141 238.773 44.9141 239.18 44.3203C239.602 43.7266 239.82 43.1641 239.836 42.6328L241.617 45.4922C241.367 46.1328 241.023 46.7969 240.586 47.4844C240.164 48.1719 239.625 48.8203 238.969 49.4297C238.312 50.0234 237.523 50.5156 236.602 50.9062C235.68 51.2812 234.586 51.4688 233.32 51.4688C231.711 51.4688 230.25 51.1484 228.938 50.5078C227.641 49.8516 226.609 48.9531 225.844 47.8125C225.094 46.6562 224.719 45.3438 224.719 43.875C224.719 42.5469 224.969 41.3672 225.469 40.3359C225.969 39.3047 226.703 38.4375 227.672 37.7344C228.656 37.0156 229.883 36.4766 231.352 36.1172C232.82 35.7422 234.523 35.5547 236.461 35.5547H240.375Z" fill="#00ADB5"/>
</g>
<g clip-path="url(#clip1_125_22)">
<path d="M16.5978 45.6366C14.2498 41.6152 12.3547 37.4929 12.3547 32.5004C12.3546 18.7095 22.7095 7.26744 36.0335 5.53389C34.9016 5.38696 33.7481 5.30872 32.5769 5.3055C17.5685 5.2639 5.30494 17.492 5.30505 32.5004C5.30505 37.493 6.6505 42.1714 8.99859 46.1927C10.1632 48.1874 12.7175 48.8669 14.7389 47.7492C15.4295 47.3673 16.215 46.9091 17.0874 46.3651C16.9116 46.137 16.7476 45.8932 16.5978 45.6366Z" fill="#C6E1F2"/>
<path d="M51.0005 9.52241C48.4453 7.46264 45.5907 5.85573 42.5163 4.74593C39.3355 3.59787 35.9101 3.01076 32.5001 3.00131C24.6557 3.00131 17.2654 6.06361 11.6848 11.6287C6.08468 17.2135 3.0005 24.626 3.00061 32.5012C3.00061 37.5719 4.30942 42.5741 6.78552 46.9669C8.04916 49.2086 10.3914 50.4695 12.8031 50.4695C13.953 50.4695 15.119 50.1826 16.1909 49.5787C20.3584 47.2307 26.9934 42.7647 34.9363 34.8219C35.8363 33.9218 35.8363 32.4626 34.9363 31.5626C34.0362 30.6627 32.577 30.6626 31.677 31.5626C24.1033 39.1363 17.8449 43.3563 13.9285 45.5628C12.8224 46.1859 11.4192 45.8005 10.8009 44.7034C8.71336 40.9999 7.61001 36.7805 7.60989 32.501C7.60989 25.8594 10.2129 19.606 14.9395 14.8923C19.6502 10.1946 25.8833 7.61048 32.5 7.61048C38.2203 7.62638 43.6635 9.52841 48.1078 13.1109C49.0986 13.9095 50.5494 13.7539 51.3484 12.7629C52.1472 11.7721 51.9914 10.3212 51.0005 9.52241Z" fill="#112D4E"/>
<path d="M13.2157 38.0912C13.6647 38.7282 14.3775 39.0685 15.1016 39.0685C15.5602 39.0685 16.0237 38.9319 16.4271 38.6477C20.2752 35.9362 24.2697 32.5179 28.2997 28.4879C32.922 23.8656 36.5623 19.6473 39.1196 15.9502C39.8436 14.9034 39.582 13.4679 38.5352 12.7437C37.4884 12.0197 36.0528 12.2813 35.3288 13.3281C32.9287 16.7978 29.4673 20.8018 25.0405 25.2286C21.1965 29.0726 17.4052 32.3197 13.7722 34.8797C12.7318 35.6131 12.4825 37.0508 13.2157 38.0912Z" fill="#00ADB5"/>
<path d="M61.7303 28.5031C61.5592 27.2418 60.3981 26.3577 59.1369 26.5291C57.8757 26.7001 56.9919 27.8613 57.1629 29.1225C57.3136 30.2333 57.3899 31.3697 57.3899 32.5002C57.3899 46.2246 46.2242 57.3903 32.4997 57.3903C31.2987 57.3903 30.0198 57.3654 28.8055 57.1848C27.5465 56.9979 26.3742 57.8667 26.187 59.1256C25.9998 60.3846 26.8687 61.5569 28.1277 61.7441C29.6383 61.9687 31.1217 61.9996 32.4997 61.9996C40.3793 61.9996 47.7872 58.9311 53.3591 53.3595C58.9308 47.7878 61.9992 40.3798 61.9992 32.5002C61.9992 31.1633 61.9087 29.8185 61.7303 28.5031Z" fill="#112D4E"/>
<path d="M15.7922 26.847C16.3202 26.847 16.8509 26.6665 17.2846 26.2974C18.8536 24.9625 20.4492 23.4854 22.0273 21.9072C23.9018 20.0327 25.3722 18.452 26.6552 16.9325C27.4763 15.96 27.3537 14.506 26.3811 13.6848C25.4085 12.8638 23.9544 12.9864 23.1334 13.959C21.9359 15.3772 20.5489 16.8672 18.7681 18.648C17.277 20.1391 15.7728 21.5317 14.2975 22.787C13.3281 23.6118 13.211 25.0663 14.0358 26.0357C14.4918 26.5716 15.1399 26.847 15.7922 26.847Z" fill="#112D4E"/>
<path d="M8.95612 61.9999C7.07888 61.9999 5.591 61.4599 4.51554 60.3845C3.20443 59.0735 2.74384 57.1716 3.14681 54.7316C3.35411 53.4758 4.54008 52.6258 5.79623 52.8333C7.05203 53.0407 7.90187 54.2269 7.69456 55.4827C7.54153 56.4089 7.62473 56.975 7.77488 57.1252C7.9604 57.3107 8.77844 57.567 10.546 57.2096C12.5224 56.8097 15.0855 55.7723 17.9579 54.2094C24.3805 50.7149 31.6244 45.0836 38.3552 38.3529C45.0859 31.6221 50.7172 24.3782 54.2117 17.9556C55.7746 15.0833 56.8119 12.5203 57.2118 10.5437C57.5693 8.77602 57.3129 7.95822 57.1275 7.7727C57.051 7.6963 56.6354 7.52668 55.6415 7.65804C54.3794 7.8249 53.2215 6.93715 53.0546 5.67524C52.8878 4.41334 53.7755 3.25525 55.0374 3.0884C57.3378 2.7843 59.1374 3.26378 60.3869 4.51347C61.9032 6.02981 62.355 8.36614 61.7297 11.4576C61.2329 13.9134 60.0657 16.8409 58.2606 20.1587C54.5607 26.9586 48.6491 34.5776 41.6145 41.6122C34.5799 48.6468 26.9608 54.5584 20.1608 58.2583C16.8431 60.0635 13.9156 61.2306 11.4598 61.7274C10.5608 61.9092 9.72576 61.9999 8.95612 61.9999Z" fill="#00ADB5"/>
</g>
</g>
<defs>
<filter id="filter0_d_125_22" x="72.0469" y="15" width="177.242" height="38.4688" filterUnits="userSpaceOnUse" color-interpolation-filters="sRGB">
<feFlood flood-opacity="0" result="BackgroundImageFix"/>
<feColorMatrix in="SourceAlpha" type="matrix" values="0 0 0 0 0 0 0 0 0 0 0 0 0 0 0 0 0 0 127 0" result="hardAlpha"/>
<feOffset dx="1" dy="1"/>
<feGaussianBlur stdDeviation="0.5"/>
<feColorMatrix type="matrix" values="0 0 0 0 0 0 0 0 0 0 0 0 0 0 0 0 0 0 0.15 0"/>
<feBlend mode="darken" in2="BackgroundImageFix" result="effect1_dropShadow_125_22"/>
<feBlend mode="normal" in="SourceGraphic" in2="effect1_dropShadow_125_22" result="shape"/>
</filter>
<clipPath id="clip0_125_22">
<rect width="252" height="68" fill="white"/>
</clipPath>
<clipPath id="clip1_125_22">
<rect width="59" height="59" fill="white" transform="translate(3 3)"/>
</clipPath>
</defs>
</svg>
