<svg width="323" height="99" viewBox="0 0 323 99" fill="none" xmlns="http://www.w3.org/2000/svg">
<g filter="url(#filter0_d_117_72)">
<path d="M124.336 55.8359H115.641V50.3516H124.336C125.68 50.3516 126.773 50.1328 127.617 49.6953C128.461 49.2422 129.078 48.6172 129.469 47.8203C129.859 47.0234 130.055 46.125 130.055 45.125C130.055 44.1094 129.859 43.1641 129.469 42.2891C129.078 41.4141 128.461 40.7109 127.617 40.1797C126.773 39.6484 125.68 39.3828 124.336 39.3828H118.078V68H111.047V33.875H124.336C127.008 33.875 129.297 34.3594 131.203 35.3281C133.125 36.2812 134.594 37.6016 135.609 39.2891C136.625 40.9766 137.133 42.9062 137.133 45.0781C137.133 47.2812 136.625 49.1875 135.609 50.7969C134.594 52.4062 133.125 53.6484 131.203 54.5234C129.297 55.3984 127.008 55.8359 124.336 55.8359ZM154.969 62.2812V50.9844C154.969 50.1719 154.836 49.4766 154.57 48.8984C154.305 48.3047 153.891 47.8438 153.328 47.5156C152.781 47.1875 152.07 47.0234 151.195 47.0234C150.445 47.0234 149.797 47.1562 149.25 47.4219C148.703 47.6719 148.281 48.0391 147.984 48.5234C147.688 48.9922 147.539 49.5469 147.539 50.1875H140.789C140.789 49.1094 141.039 48.0859 141.539 47.1172C142.039 46.1484 142.766 45.2969 143.719 44.5625C144.672 43.8125 145.805 43.2266 147.117 42.8047C148.445 42.3828 149.93 42.1719 151.57 42.1719C153.539 42.1719 155.289 42.5 156.82 43.1562C158.352 43.8125 159.555 44.7969 160.43 46.1094C161.32 47.4219 161.766 49.0625 161.766 51.0312V61.8828C161.766 63.2734 161.852 64.4141 162.023 65.3047C162.195 66.1797 162.445 66.9453 162.773 67.6016V68H155.953C155.625 67.3125 155.375 66.4531 155.203 65.4219C155.047 64.375 154.969 63.3281 154.969 62.2812ZM155.859 52.5547L155.906 56.375H152.133C151.242 56.375 150.469 56.4766 149.812 56.6797C149.156 56.8828 148.617 57.1719 148.195 57.5469C147.773 57.9062 147.461 58.3281 147.258 58.8125C147.07 59.2969 146.977 59.8281 146.977 60.4062C146.977 60.9844 147.109 61.5078 147.375 61.9766C147.641 62.4297 148.023 62.7891 148.523 63.0547C149.023 63.3047 149.609 63.4297 150.281 63.4297C151.297 63.4297 152.18 63.2266 152.93 62.8203C153.68 62.4141 154.258 61.9141 154.664 61.3203C155.086 60.7266 155.305 60.1641 155.32 59.6328L157.102 62.4922C156.852 63.1328 156.508 63.7969 156.07 64.4844C155.648 65.1719 155.109 65.8203 154.453 66.4297C153.797 67.0234 153.008 67.5156 152.086 67.9062C151.164 68.2812 150.07 68.4688 148.805 68.4688C147.195 68.4688 145.734 68.1484 144.422 67.5078C143.125 66.8516 142.094 65.9531 141.328 64.8125C140.578 63.6562 140.203 62.3438 140.203 60.875C140.203 59.5469 140.453 58.3672 140.953 57.3359C141.453 56.3047 142.188 55.4375 143.156 54.7344C144.141 54.0156 145.367 53.4766 146.836 53.1172C148.305 52.7422 150.008 52.5547 151.945 52.5547H155.859ZM173.578 48.0547V68H166.828V42.6406H173.156L173.578 48.0547ZM172.594 54.4297H170.766C170.766 52.5547 171.008 50.8672 171.492 49.3672C171.977 47.8516 172.656 46.5625 173.531 45.5C174.406 44.4219 175.445 43.6016 176.648 43.0391C177.867 42.4609 179.227 42.1719 180.727 42.1719C181.914 42.1719 183 42.3438 183.984 42.6875C184.969 43.0312 185.812 43.5781 186.516 44.3281C187.234 45.0781 187.781 46.0703 188.156 47.3047C188.547 48.5391 188.742 50.0469 188.742 51.8281V68H181.945V51.8047C181.945 50.6797 181.789 49.8047 181.477 49.1797C181.164 48.5547 180.703 48.1172 180.094 47.8672C179.5 47.6016 178.766 47.4688 177.891 47.4688C176.984 47.4688 176.195 47.6484 175.523 48.0078C174.867 48.3672 174.32 48.8672 173.883 49.5078C173.461 50.1328 173.141 50.8672 172.922 51.7109C172.703 52.5547 172.594 53.4609 172.594 54.4297ZM208.852 62.4688V32H215.648V68H209.531L208.852 62.4688ZM192.82 55.625V55.1328C192.82 53.1953 193.039 51.4375 193.477 49.8594C193.914 48.2656 194.555 46.8984 195.398 45.7578C196.242 44.6172 197.281 43.7344 198.516 43.1094C199.75 42.4844 201.156 42.1719 202.734 42.1719C204.219 42.1719 205.516 42.4844 206.625 43.1094C207.75 43.7344 208.703 44.625 209.484 45.7812C210.281 46.9219 210.922 48.2734 211.406 49.8359C211.891 51.3828 212.242 53.0781 212.461 54.9219V56C212.242 57.7656 211.891 59.4062 211.406 60.9219C210.922 62.4375 210.281 63.7656 209.484 64.9062C208.703 66.0312 207.75 66.9062 206.625 67.5312C205.5 68.1562 204.188 68.4688 202.688 68.4688C201.109 68.4688 199.703 68.1484 198.469 67.5078C197.25 66.8672 196.219 65.9688 195.375 64.8125C194.547 63.6562 193.914 62.2969 193.477 60.7344C193.039 59.1719 192.82 57.4688 192.82 55.625ZM199.57 55.1328V55.625C199.57 56.6719 199.648 57.6484 199.805 58.5547C199.977 59.4609 200.25 60.2656 200.625 60.9688C201.016 61.6562 201.516 62.1953 202.125 62.5859C202.75 62.9609 203.508 63.1484 204.398 63.1484C205.555 63.1484 206.508 62.8906 207.258 62.375C208.008 61.8438 208.578 61.1172 208.969 60.1953C209.375 59.2734 209.609 58.2109 209.672 57.0078V53.9375C209.625 52.9531 209.484 52.0703 209.25 51.2891C209.031 50.4922 208.703 49.8125 208.266 49.25C207.844 48.6875 207.312 48.25 206.672 47.9375C206.047 47.625 205.305 47.4688 204.445 47.4688C203.57 47.4688 202.82 47.6719 202.195 48.0781C201.57 48.4688 201.062 49.0078 200.672 49.6953C200.297 50.3828 200.016 51.1953 199.828 52.1328C199.656 53.0547 199.57 54.0547 199.57 55.1328ZM219.844 55.5781V55.0859C219.844 53.2266 220.109 51.5156 220.641 49.9531C221.172 48.375 221.945 47.0078 222.961 45.8516C223.977 44.6953 225.227 43.7969 226.711 43.1562C228.195 42.5 229.898 42.1719 231.82 42.1719C233.742 42.1719 235.453 42.5 236.953 43.1562C238.453 43.7969 239.711 44.6953 240.727 45.8516C241.758 47.0078 242.539 48.375 243.07 49.9531C243.602 51.5156 243.867 53.2266 243.867 55.0859V55.5781C243.867 57.4219 243.602 59.1328 243.07 60.7109C242.539 62.2734 241.758 63.6406 240.727 64.8125C239.711 65.9688 238.461 66.8672 236.977 67.5078C235.492 68.1484 233.789 68.4688 231.867 68.4688C229.945 68.4688 228.234 68.1484 226.734 67.5078C225.25 66.8672 223.992 65.9688 222.961 64.8125C221.945 63.6406 221.172 62.2734 220.641 60.7109C220.109 59.1328 219.844 57.4219 219.844 55.5781ZM226.594 55.0859V55.5781C226.594 56.6406 226.688 57.6328 226.875 58.5547C227.062 59.4766 227.359 60.2891 227.766 60.9922C228.188 61.6797 228.734 62.2188 229.406 62.6094C230.078 63 230.898 63.1953 231.867 63.1953C232.805 63.1953 233.609 63 234.281 62.6094C234.953 62.2188 235.492 61.6797 235.898 60.9922C236.305 60.2891 236.602 59.4766 236.789 58.5547C236.992 57.6328 237.094 56.6406 237.094 55.5781V55.0859C237.094 54.0547 236.992 53.0859 236.789 52.1797C236.602 51.2578 236.297 50.4453 235.875 49.7422C235.469 49.0234 234.93 48.4609 234.258 48.0547C233.586 47.6484 232.773 47.4453 231.82 47.4453C230.867 47.4453 230.055 47.6484 229.383 48.0547C228.727 48.4609 228.188 49.0234 227.766 49.7422C227.359 50.4453 227.062 51.2578 226.875 52.1797C226.688 53.0859 226.594 54.0547 226.594 55.0859ZM254.766 48.1719V68H248.016V42.6406H254.367L254.766 48.1719ZM262.406 42.4766L262.289 48.7344C261.961 48.6875 261.562 48.6484 261.094 48.6172C260.641 48.5703 260.227 48.5469 259.852 48.5469C258.898 48.5469 258.07 48.6719 257.367 48.9219C256.68 49.1562 256.102 49.5078 255.633 49.9766C255.18 50.4453 254.836 51.0156 254.602 51.6875C254.383 52.3594 254.258 53.125 254.227 53.9844L252.867 53.5625C252.867 51.9219 253.031 50.4141 253.359 49.0391C253.688 47.6484 254.164 46.4375 254.789 45.4062C255.43 44.375 256.211 43.5781 257.133 43.0156C258.055 42.4531 259.109 42.1719 260.297 42.1719C260.672 42.1719 261.055 42.2031 261.445 42.2656C261.836 42.3125 262.156 42.3828 262.406 42.4766ZM278.484 62.2812V50.9844C278.484 50.1719 278.352 49.4766 278.086 48.8984C277.82 48.3047 277.406 47.8438 276.844 47.5156C276.297 47.1875 275.586 47.0234 274.711 47.0234C273.961 47.0234 273.312 47.1562 272.766 47.4219C272.219 47.6719 271.797 48.0391 271.5 48.5234C271.203 48.9922 271.055 49.5469 271.055 50.1875H264.305C264.305 49.1094 264.555 48.0859 265.055 47.1172C265.555 46.1484 266.281 45.2969 267.234 44.5625C268.188 43.8125 269.32 43.2266 270.633 42.8047C271.961 42.3828 273.445 42.1719 275.086 42.1719C277.055 42.1719 278.805 42.5 280.336 43.1562C281.867 43.8125 283.07 44.7969 283.945 46.1094C284.836 47.4219 285.281 49.0625 285.281 51.0312V61.8828C285.281 63.2734 285.367 64.4141 285.539 65.3047C285.711 66.1797 285.961 66.9453 286.289 67.6016V68H279.469C279.141 67.3125 278.891 66.4531 278.719 65.4219C278.562 64.375 278.484 63.3281 278.484 62.2812ZM279.375 52.5547L279.422 56.375H275.648C274.758 56.375 273.984 56.4766 273.328 56.6797C272.672 56.8828 272.133 57.1719 271.711 57.5469C271.289 57.9062 270.977 58.3281 270.773 58.8125C270.586 59.2969 270.492 59.8281 270.492 60.4062C270.492 60.9844 270.625 61.5078 270.891 61.9766C271.156 62.4297 271.539 62.7891 272.039 63.0547C272.539 63.3047 273.125 63.4297 273.797 63.4297C274.812 63.4297 275.695 63.2266 276.445 62.8203C277.195 62.4141 277.773 61.9141 278.18 61.3203C278.602 60.7266 278.82 60.1641 278.836 59.6328L280.617 62.4922C280.367 63.1328 280.023 63.7969 279.586 64.4844C279.164 65.1719 278.625 65.8203 277.969 66.4297C277.312 67.0234 276.523 67.5156 275.602 67.9062C274.68 68.2812 273.586 68.4688 272.32 68.4688C270.711 68.4688 269.25 68.1484 267.938 67.5078C266.641 66.8516 265.609 65.9531 264.844 64.8125C264.094 63.6562 263.719 62.3438 263.719 60.875C263.719 59.5469 263.969 58.3672 264.469 57.3359C264.969 56.3047 265.703 55.4375 266.672 54.7344C267.656 54.0156 268.883 53.4766 270.352 53.1172C271.82 52.7422 273.523 52.5547 275.461 52.5547H279.375Z" fill="#00ADB5"/>
</g>
<g clip-path="url(#clip0_117_72)">
<path d="M55.5979 62.6366C53.25 58.6152 51.3548 54.4929 51.3548 49.5004C51.3547 35.7095 61.7096 24.2674 75.0337 22.5339C73.9017 22.387 72.7483 22.3087 71.577 22.3055C56.5686 22.2639 44.3051 34.492 44.3052 49.5004C44.3052 54.493 45.6506 59.1714 47.9987 63.1927C49.1634 65.1874 51.7176 65.8669 53.739 64.7492C54.4296 64.3673 55.2151 63.9091 56.0875 63.3651C55.9117 63.137 55.7477 62.8932 55.5979 62.6366Z" fill="#C6E1F2"/>
<path d="M90.0007 26.5224C87.4454 24.4626 84.5909 22.8557 81.5165 21.7459C78.3356 20.5979 74.9102 20.0108 71.5003 20.0013C63.6558 20.0013 56.2655 23.0636 50.685 28.6287C45.0848 34.2135 42.0006 41.626 42.0007 49.5012C42.0007 54.5719 43.3095 59.5741 45.7856 63.9669C47.0493 66.2086 49.3915 67.4695 51.8032 67.4695C52.9531 67.4695 54.1191 67.1826 55.191 66.5787C59.3585 64.2307 65.9936 59.7647 73.9364 51.8219C74.8365 50.9218 74.8365 49.4626 73.9364 48.5626C73.0363 47.6627 71.5771 47.6626 70.6772 48.5626C63.1034 56.1363 56.845 60.3563 52.9287 62.5628C51.8225 63.1859 50.4194 62.8005 49.801 61.7034C47.7135 57.9999 46.6101 53.7805 46.61 49.501C46.61 42.8594 49.213 36.606 53.9396 31.8923C58.6503 27.1946 64.8834 24.6105 71.5001 24.6105C77.2204 24.6264 82.6636 26.5284 87.1079 30.1109C88.0988 30.9095 89.5495 30.7539 90.3486 29.7629C91.1473 28.7721 90.9915 27.3212 90.0007 26.5224Z" fill="#112D4E"/>
<path d="M52.2159 55.0912C52.6648 55.7282 53.3776 56.0685 54.1017 56.0685C54.5604 56.0685 55.0238 55.9319 55.4273 55.6477C59.2753 52.9362 63.2698 49.5179 67.2998 45.4879C71.9221 40.8656 75.5624 36.6473 78.1197 32.9502C78.8437 31.9034 78.5821 30.4679 77.5353 29.7437C76.4886 29.0197 75.0529 29.2813 74.3289 30.3281C71.9288 33.7978 68.4674 37.8018 64.0406 42.2286C60.1966 46.0726 56.4053 49.3197 52.7723 51.8797C51.7319 52.6131 51.4826 54.0508 52.2159 55.0912Z" fill="#00ADB5"/>
<path d="M100.73 45.5031C100.559 44.2418 99.3981 43.3577 98.1369 43.5291C96.8757 43.7001 95.9919 44.8613 96.1629 46.1225C96.3136 47.2333 96.3899 48.3697 96.3899 49.5002C96.3899 63.2246 85.2242 74.3903 71.4997 74.3903C70.2987 74.3903 69.0198 74.3654 67.8055 74.1848C66.5465 73.9979 65.3742 74.8667 65.187 76.1256C64.9998 77.3846 65.8687 78.5569 67.1277 78.7441C68.6383 78.9687 70.1217 78.9996 71.4997 78.9996C79.3793 78.9996 86.7872 75.9311 92.3591 70.3595C97.9308 64.7878 100.999 57.3798 100.999 49.5002C100.999 48.1633 100.909 46.8185 100.73 45.5031Z" fill="#112D4E"/>
<path d="M54.7924 43.847C55.3204 43.847 55.8512 43.6665 56.2848 43.2974C57.8538 41.9625 59.4494 40.4854 61.0275 38.9072C62.902 37.0327 64.3725 35.452 65.6555 33.9325C66.4765 32.96 66.3539 31.506 65.3813 30.6848C64.4088 29.8638 62.9547 29.9864 62.1336 30.959C60.9361 32.3772 59.5491 33.8672 57.7683 35.648C56.2772 37.1391 54.7731 38.5317 53.2978 39.787C52.3283 40.6118 52.2112 42.0663 53.0361 43.0357C53.492 43.5716 54.1401 43.847 54.7924 43.847Z" fill="#112D4E"/>
<path d="M47.9561 78.9999C46.0789 78.9999 44.591 78.4599 43.5155 77.3845C42.2044 76.0735 41.7438 74.1716 42.1468 71.7316C42.3541 70.4758 43.5401 69.6258 44.7962 69.8333C46.052 70.0407 46.9019 71.2269 46.6946 72.4827C46.5415 73.4089 46.6247 73.975 46.7749 74.1252C46.9604 74.3107 47.7784 74.567 49.546 74.2096C51.5224 73.8097 54.0855 72.7723 56.9579 71.2094C63.3805 67.7149 70.6244 62.0836 77.3552 55.3529C84.0859 48.6221 89.7172 41.3782 93.2117 34.9556C94.7746 32.0833 95.8119 29.5203 96.2118 27.5437C96.5693 25.776 96.3129 24.9582 96.1275 24.7727C96.051 24.6963 95.6354 24.5267 94.6415 24.658C93.3794 24.8249 92.2215 23.9371 92.0546 22.6752C91.8878 21.4133 92.7755 20.2553 94.0374 20.0884C96.3378 19.7843 98.1374 20.2638 99.3869 21.5135C100.903 23.0298 101.355 25.3661 100.73 28.4576C100.233 30.9134 99.0657 33.8409 97.2606 37.1587C93.5607 43.9586 87.6491 51.5776 80.6145 58.6122C73.5799 65.6468 65.9608 71.5584 59.1608 75.2583C55.8431 77.0635 52.9156 78.2306 50.4598 78.7274C49.5608 78.9092 48.7258 78.9999 47.9561 78.9999Z" fill="#00ADB5"/>
</g>
<defs>
<filter id="filter0_d_117_72" x="111.047" y="32" width="177.242" height="38.4688" filterUnits="userSpaceOnUse" color-interpolation-filters="sRGB">
<feFlood flood-opacity="0" result="BackgroundImageFix"/>
<feColorMatrix in="SourceAlpha" type="matrix" values="0 0 0 0 0 0 0 0 0 0 0 0 0 0 0 0 0 0 127 0" result="hardAlpha"/>
<feOffset dx="1" dy="1"/>
<feGaussianBlur stdDeviation="0.5"/>
<feColorMatrix type="matrix" values="0 0 0 0 0 0 0 0 0 0 0 0 0 0 0 0 0 0 0.15 0"/>
<feBlend mode="darken" in2="BackgroundImageFix" result="effect1_dropShadow_117_72"/>
<feBlend mode="normal" in="SourceGraphic" in2="effect1_dropShadow_117_72" result="shape"/>
</filter>
<clipPath id="clip0_117_72">
<rect width="59" height="59" fill="white" transform="translate(42 20)"/>
</clipPath>
</defs>
</svg>
